# xmcd
#
# Track frame offsets:
# 150
# 13595
# 26521
# 36875
# 47068
# 60261
# 78276
# 91394
# 106670
# 119964
#
# Disc length: 1732 seconds
#
#
# Revision: 0
# Processed by: cddbd v1.5.1PL2 Copyright (c) Steve Scherf et al.
# Submitted via: FreeRIP 2.945 
#
DISCID=7406c20a
DTITLE=Steve Roseberry - FGBMFI Presents Steve Roseberry
DYEAR=1900
DGENRE=Gospel
TTITLE0=He Touched Me
TTITLE1=I Believe
TTITLE2=I Sas The Light
TTITLE3=Teach Me To Pray
TTITLE4=Sweet, Sweet Spirit
TTITLE5=Because He Lives
TTITLE6=Had It Not Been
TTITLE7=I Believe In Miracles
TTITLE8=Where No One Stands Alone
TTITLE9=Fill My Cup, Lord
EXTD=
EXTT0=
EXTT1=
EXTT2=
EXTT3=
EXTT4=
EXTT5=
EXTT6=
EXTT7=
EXTT8=
EXTT9=
PLAYORDER=
